# Blender v2.78 (sub 0) OBJ File: 'door.blend'
# www.blender.org
mtllib door.mtl
o TrainDoor_Cube.007
v 0.100000 -2.520022 0.057292
v 0.100000 2.574207 0.057292
v 2.000000 -2.600000 0.072968
v 2.000000 2.600000 0.072968
v 0.073508 -2.520022 0.057292
v 0.000000 -2.520022 0.015178
v 0.021530 -2.520022 0.044957
v 0.000000 2.574207 0.015178
v 0.073508 2.574207 0.057292
v 0.021530 2.574207 0.044957
v 0.100000 -2.600000 0.072968
v 0.100000 2.600000 0.072968
v 0.367058 -0.059539 0.072968
v 0.399303 -0.221647 0.072968
v 0.491130 -0.359076 0.072968
v 0.628558 -0.450902 0.072968
v 0.790667 -0.483148 0.072968
v 1.310502 -0.483148 0.072968
v 1.472610 -0.450902 0.072968
v 1.610038 -0.359075 0.072968
v 1.701865 -0.221647 0.072968
v 1.734110 -0.059539 0.072968
v 1.734110 1.608601 0.072968
v 1.701865 1.770709 0.072968
v 1.610038 1.908138 0.072968
v 1.472610 1.999965 0.072968
v 1.310502 2.032210 0.072968
v 0.790667 2.032210 0.072968
v 0.628558 1.999965 0.072968
v 0.491130 1.908138 0.072968
v 0.399303 1.770709 0.072968
v 0.367058 1.608601 0.072968
v 0.495992 1.595902 0.051571
v 0.520756 1.720402 0.051571
v 0.584086 1.815182 0.051571
v 0.678866 1.878512 0.051571
v 0.803366 1.903276 0.051571
v 1.297803 1.903277 0.051571
v 1.422302 1.878512 0.051571
v 1.517082 1.815182 0.051571
v 1.580412 1.720402 0.051571
v 1.605177 1.595902 0.051571
v 1.605177 -0.046840 0.051571
v 1.580412 -0.171339 0.051571
v 1.517082 -0.266120 0.051571
v 1.422302 -0.329450 0.051571
v 1.297803 -0.354214 0.051571
v 0.803366 -0.354214 0.051571
v 0.678866 -0.329449 0.051571
v 0.584086 -0.266120 0.051571
v 0.520756 -0.171339 0.051571
v 0.495992 -0.046840 0.051571
v 0.367058 1.608601 0.051571
v 0.367058 -0.059539 0.051571
v 0.491130 1.908138 0.051571
v 0.399303 1.770709 0.051571
v 0.628558 1.999965 0.051571
v 0.790667 2.032210 0.051571
v 1.310502 2.032210 0.051571
v 1.472610 1.999965 0.051571
v 1.610038 1.908138 0.051571
v 1.701865 1.770709 0.051571
v 1.734110 1.608601 0.051571
v 1.734110 -0.059539 0.051571
v 1.701865 -0.221647 0.051571
v 1.610038 -0.359075 0.051571
v 1.472610 -0.450902 0.051571
v 1.310502 -0.483148 0.051571
v 0.790667 -0.483148 0.051571
v 0.628558 -0.450902 0.051571
v 0.491130 -0.359076 0.051571
v 0.399303 -0.221647 0.051571
v 0.100000 -2.520022 -0.057292
v 0.100000 2.574207 -0.057292
v 2.000000 -2.600000 -0.072968
v 2.000000 2.600000 -0.072968
v 0.073508 -2.520022 -0.057292
v 0.000000 -2.520022 -0.015178
v 0.021530 -2.520022 -0.044957
v 0.000000 2.574207 -0.015178
v 0.073508 2.574207 -0.057292
v 0.021530 2.574207 -0.044957
v 0.100000 -2.600000 -0.072968
v 0.100000 2.600000 -0.072968
v 0.000000 2.574207 0.000000
v 0.100000 -2.520022 0.000000
v 2.000000 2.600000 0.000000
v 0.100000 2.574207 0.000000
v 0.000000 -2.520022 0.000000
v 2.000000 -2.600000 0.000000
v 0.100000 -2.600000 0.000000
v 0.100000 2.600000 0.000000
v 0.367058 -0.059539 -0.072968
v 0.399303 -0.221647 -0.072968
v 0.491130 -0.359076 -0.072968
v 0.628558 -0.450902 -0.072968
v 0.790667 -0.483148 -0.072968
v 1.310502 -0.483148 -0.072968
v 1.472610 -0.450902 -0.072968
v 1.610038 -0.359075 -0.072968
v 1.701865 -0.221647 -0.072968
v 1.734110 -0.059539 -0.072968
v 1.734110 1.608601 -0.072968
v 1.701865 1.770709 -0.072968
v 1.610038 1.908138 -0.072968
v 1.472610 1.999965 -0.072968
v 1.310502 2.032210 -0.072968
v 0.790667 2.032210 -0.072968
v 0.628558 1.999965 -0.072968
v 0.491130 1.908138 -0.072968
v 0.399303 1.770709 -0.072968
v 0.367058 1.608601 -0.072968
v 0.495992 1.595902 -0.051571
v 0.520756 1.720402 -0.051571
v 0.584086 1.815182 -0.051571
v 0.678866 1.878512 -0.051571
v 0.803366 1.903276 -0.051571
v 1.297803 1.903277 -0.051571
v 1.422302 1.878512 -0.051571
v 1.517082 1.815182 -0.051571
v 1.580412 1.720402 -0.051571
v 1.605177 1.595902 -0.051571
v 1.605177 -0.046840 -0.051571
v 1.580412 -0.171339 -0.051571
v 1.517082 -0.266120 -0.051571
v 1.422302 -0.329450 -0.051571
v 1.297803 -0.354214 -0.051571
v 0.803366 -0.354214 -0.051571
v 0.678866 -0.329449 -0.051571
v 0.584086 -0.266120 -0.051571
v 0.520756 -0.171339 -0.051571
v 0.495992 -0.046840 -0.051571
v 0.367058 1.608601 -0.051571
v 0.367058 -0.059539 -0.051571
v 0.491130 1.908138 -0.051571
v 0.399303 1.770709 -0.051571
v 0.628558 1.999965 -0.051571
v 0.790667 2.032210 -0.051571
v 1.310502 2.032210 -0.051571
v 1.472610 1.999965 -0.051571
v 1.610038 1.908138 -0.051571
v 1.701865 1.770709 -0.051571
v 1.734110 1.608601 -0.051571
v 1.734110 -0.059539 -0.051571
v 1.701865 -0.221647 -0.051571
v 1.610038 -0.359075 -0.051571
v 1.472610 -0.450902 -0.051571
v 1.310502 -0.483148 -0.051571
v 0.790667 -0.483148 -0.051571
v 0.628558 -0.450902 -0.051571
v 0.491130 -0.359076 -0.051571
v 0.399303 -0.221647 -0.051571
v 0.495992 1.595902 0.000000
v 0.520756 1.720402 0.000000
v 0.584086 1.815182 0.000000
v 0.678866 1.878512 0.000000
v 0.803366 1.903276 0.000000
v 1.297803 1.903277 0.000000
v 1.422302 1.878512 0.000000
v 1.517082 1.815182 0.000000
v 1.580412 1.720402 0.000000
v 1.605177 1.595902 0.000000
v 1.605177 -0.046840 0.000000
v 1.580412 -0.171339 0.000000
v 1.517082 -0.266120 0.000000
v 1.422302 -0.329450 0.000000
v 1.297803 -0.354214 0.000000
v 0.803366 -0.354214 0.000000
v 0.678866 -0.329449 0.000000
v 0.584086 -0.266120 0.000000
v 0.520756 -0.171339 0.000000
v 0.495992 -0.046840 0.000000
v 0.251127 0.454055 -0.062644
v 0.495992 1.595902 0.000000
v 0.495992 -0.046840 0.000000
v 0.584086 1.815182 0.000000
v 0.520756 1.720402 0.000000
v 0.678866 1.878512 0.000000
v 0.803366 1.903276 0.000000
v 1.297803 1.903277 0.000000
v 1.422302 1.878512 0.000000
v 1.517082 1.815182 0.000000
v 1.580412 1.720402 0.000000
v 1.605177 1.595902 0.000000
v 1.605177 -0.046840 0.000000
v 1.580412 -0.171339 0.000000
v 1.517082 -0.266120 0.000000
v 1.422302 -0.329450 0.000000
v 1.297803 -0.354214 0.000000
v 0.803366 -0.354214 0.000000
v 0.678866 -0.329449 0.000000
v 0.584086 -0.266120 0.000000
v 0.520756 -0.171339 0.000000
vt 0.8799 0.0342
vt 0.9238 0.0596
vt 0.8945 0.0664
vt 0.7617 0.0000
vt 0.4062 0.0176
vt 0.4062 0.0000
vt 0.4053 1.0000
vt 0.7617 0.9834
vt 0.7617 1.0000
vt 0.7793 0.9834
vt 0.7617 0.0176
vt 0.7793 0.0176
vt 0.8799 0.9570
vt 0.9238 0.9316
vt 0.9365 0.9570
vt 0.5351 0.8776
vt 0.6323 0.8778
vt 0.5052 0.4174
vt 0.5355 0.4117
vt 0.4887 0.5168
vt 0.4688 0.7709
vt 0.4690 0.5149
vt 0.5030 0.8047
vt 0.4764 0.7985
vt 0.4938 0.7912
vt 0.5045 0.8070
vt 0.5102 0.8358
vt 0.4896 0.8208
vt 0.5215 0.8186
vt 0.5379 0.8429
vt 0.5131 0.8370
vt 0.6187 0.8255
vt 0.5396 0.8433
vt 0.5421 0.8234
vt 0.6395 0.8228
vt 0.6208 0.8456
vt 0.6200 0.8255
vt 0.6576 0.8133
vt 0.6483 0.8410
vt 0.6422 0.8218
vt 0.6610 0.8110
vt 0.6914 0.8029
vt 0.6767 0.8260
vt 0.6721 0.7920
vt 0.6970 0.7735
vt 0.6920 0.8000
vt 0.6754 0.5143
vt 0.6958 0.7721
vt 0.6757 0.7701
vt 0.6720 0.4925
vt 0.6967 0.5112
vt 0.6757 0.5128
vt 0.6610 0.4734
vt 0.6913 0.4818
vt 0.6710 0.4895
vt 0.6424 0.4625
vt 0.6707 0.4557
vt 0.6576 0.4711
vt 0.6397 0.4615
vt 0.6212 0.4385
vt 0.6466 0.4423
vt 0.5423 0.4600
vt 0.6205 0.4385
vt 0.6189 0.4585
vt 0.5214 0.4652
vt 0.5373 0.4404
vt 0.5404 0.4602
vt 0.5042 0.4773
vt 0.5094 0.4478
vt 0.5185 0.4664
vt 0.5027 0.4796
vt 0.4753 0.4867
vt 0.4886 0.4660
vt 0.4923 0.4967
vt 0.4696 0.5141
vt 0.4739 0.4896
vt 0.4926 0.7884
vt 0.4705 0.7720
vt 0.4892 0.7703
vt 0.3882 0.9834
vt 0.3896 0.0176
vt 0.4053 0.9834
vt 0.5047 0.8717
vt 0.6882 0.4343
vt 0.6626 0.4174
vt 0.4558 0.7994
vt 0.4619 0.8294
vt 0.7114 0.4896
vt 0.7053 0.4597
vt 0.6626 0.8718
vt 0.6883 0.8548
vt 0.7053 0.8293
vt 0.4790 0.8548
vt 0.6323 0.4116
vt 0.4796 0.4343
vt 0.7113 0.7992
vt 0.4563 0.4895
vt 0.4624 0.4596
vt 0.9238 0.0088
vt 0.9365 0.0342
vt 0.3721 0.0176
vt 0.0186 0.0000
vt 0.3721 0.0000
vt 0.0186 0.9834
vt 0.3711 1.0000
vt 0.0186 1.0000
vt 0.0186 0.0176
vt 0.0000 0.9834
vt 0.0000 0.0176
vt 0.9238 0.9824
vt 0.8945 0.9893
vt 0.3081 0.5227
vt 0.2869 0.7755
vt 0.2884 0.5245
vt 0.2986 0.8058
vt 0.2714 0.8114
vt 0.2811 0.7979
vt 0.2699 0.8133
vt 0.2643 0.8417
vt 0.2559 0.8235
vt 0.2531 0.8248
vt 0.2371 0.8486
vt 0.2344 0.8292
vt 0.2352 0.8490
vt 0.1576 0.8314
vt 0.2328 0.8295
vt 0.1556 0.8514
vt 0.1369 0.8287
vt 0.1564 0.8314
vt 0.1284 0.8473
vt 0.1187 0.8196
vt 0.1343 0.8279
vt 0.1153 0.8167
vt 0.0861 0.8076
vt 0.1061 0.8008
vt 0.1052 0.7979
vt 0.0816 0.7791
vt 0.1021 0.7780
vt 0.0828 0.7786
vt 0.1026 0.5269
vt 0.1024 0.7767
vt 0.0833 0.5226
vt 0.1072 0.5064
vt 0.1028 0.5252
vt 0.0900 0.4952
vt 0.1186 0.4893
vt 0.1084 0.5035
vt 0.1047 0.4738
vt 0.1343 0.4767
vt 0.1201 0.4875
vt 0.1372 0.4755
vt 0.1529 0.4509
vt 0.1561 0.4705
vt 0.1557 0.4507
vt 0.2333 0.4692
vt 0.1579 0.4704
vt 0.2354 0.4494
vt 0.2538 0.4720
vt 0.2345 0.4692
vt 0.2627 0.4539
vt 0.2717 0.4815
vt 0.2565 0.4730
vt 0.2751 0.4841
vt 0.3048 0.4931
vt 0.2845 0.5002
vt 0.2854 0.5031
vt 0.3093 0.5218
vt 0.2887 0.5231
vt 0.3050 0.7793
vt 0.2823 0.7951
vt 0.2863 0.7771
vt 0.3711 0.9834
vt 0.3217 0.7994
vt 0.3220 0.4896
vt 0.3160 0.4595
vt 0.2990 0.4340
vt 0.2731 0.8720
vt 0.2986 0.8550
vt 0.3157 0.8295
vt 0.0911 0.4339
vt 0.0740 0.4594
vt 0.2735 0.4170
vt 0.2434 0.4110
vt 0.0909 0.8549
vt 0.1164 0.8720
vt 0.1166 0.4169
vt 0.1468 0.4110
vt 0.0680 0.4895
vt 0.2430 0.8780
vt 0.0739 0.8294
vt 0.1465 0.8780
vt 0.0679 0.7993
vt 0.8799 0.0664
vt 0.9365 0.0430
vt 0.9365 0.9482
vt 0.8789 0.9248
vt 0.8945 0.9248
vt 0.4886 0.7689
vt 0.4897 0.8182
vt 0.5187 0.8174
vt 0.5405 0.8231
vt 0.6201 0.8456
vt 0.6462 0.8420
vt 0.6706 0.8288
vt 0.6711 0.7950
vt 0.6760 0.7717
vt 0.6955 0.5123
vt 0.6919 0.4847
vt 0.6769 0.4585
vt 0.6486 0.4433
vt 0.6202 0.4586
vt 0.5400 0.4400
vt 0.5125 0.4468
vt 0.4887 0.4636
vt 0.4935 0.4939
vt 0.4890 0.5155
vt 0.4750 0.7955
vt 0.8789 0.0020
vt 0.8945 0.0020
vt 0.9355 0.0254
vt 0.9365 0.9648
vt 0.8799 0.9893
vt 0.3066 0.7776
vt 0.2845 0.8254
vt 0.2846 0.8269
vt 0.2614 0.8428
vt 0.1562 0.8510
vt 0.1303 0.8479
vt 0.1058 0.8353
vt 0.0994 0.8307
vt 0.0856 0.8051
vt 0.0830 0.5250
vt 0.0890 0.4981
vt 0.1048 0.4746
vt 0.1253 0.4582
vt 0.1284 0.4573
vt 0.2349 0.4495
vt 0.2605 0.4530
vt 0.2847 0.4662
vt 0.2911 0.4698
vt 0.3050 0.4957
vt 0.2998 0.8028
vt 0.9248 0.0664
vt 0.9395 0.9238
vt 0.9238 0.9248
vt 0.9092 0.9248
vt 0.9102 0.0664
vt 0.4859 0.4643
vt 0.4726 0.4850
vt 0.7001 0.5106
vt 0.6954 0.4840
vt 0.5124 0.8402
vt 0.5371 0.8461
vt 0.4707 0.4891
vt 0.4665 0.5135
vt 0.6943 0.4799
vt 0.6799 0.4567
vt 0.5395 0.8466
vt 0.6200 0.8489
vt 0.4675 0.7726
vt 0.4719 0.7961
vt 0.6723 0.4529
vt 0.6502 0.4405
vt 0.6213 0.8489
vt 0.6467 0.8453
vt 0.6471 0.4390
vt 0.6217 0.4352
vt 0.6499 0.8439
vt 0.6721 0.8317
vt 0.6204 0.4352
vt 0.5399 0.4367
vt 0.6797 0.8279
vt 0.6944 0.8048
vt 0.4645 0.5149
vt 0.4644 0.7709
vt 0.5365 0.4372
vt 0.5117 0.4436
vt 0.6954 0.8007
vt 0.7004 0.7742
vt 0.4739 0.8002
vt 0.4872 0.8199
vt 0.5074 0.4451
vt 0.4866 0.4609
vt 0.7000 0.5123
vt 0.4876 0.8235
vt 0.5083 0.8384
vt 0.5425 0.4679
vt 0.6639 0.7905
vt 0.4965 0.7690
vt 0.5234 0.4729
vt 0.6677 0.7701
vt 0.5000 0.7870
vt 0.5091 0.8006
vt 0.5091 0.4838
vt 0.6674 0.5143
vt 0.5234 0.8109
vt 0.4999 0.4980
vt 0.6637 0.4940
vt 0.5424 0.8154
vt 0.4967 0.5168
vt 0.6537 0.4780
vt 0.6189 0.8176
vt 0.6385 0.4694
vt 0.6384 0.8148
vt 0.6190 0.4665
vt 0.6538 0.8064
vt 0.9844 0.9248
vt 1.0000 0.0674
vt 0.9990 0.9248
vt 0.9551 0.0664
vt 0.9541 0.9248
vt 0.9688 0.9248
vt 0.9844 0.0664
vt 0.9697 0.0664
vt 0.2942 0.4680
vt 0.3078 0.4913
vt 0.0801 0.5218
vt 0.0858 0.4974
vt 0.2622 0.8460
vt 0.2379 0.8518
vt 0.3084 0.4951
vt 0.3127 0.5212
vt 0.0873 0.4933
vt 0.1021 0.4727
vt 0.2353 0.8523
vt 0.1563 0.8543
vt 0.3081 0.7800
vt 0.3029 0.8035
vt 0.1027 0.4712
vt 0.1233 0.4555
vt 0.1551 0.8547
vt 0.1298 0.8512
vt 0.1275 0.4542
vt 0.1521 0.4477
vt 0.1268 0.8502
vt 0.1043 0.8382
vt 0.1557 0.4475
vt 0.2348 0.4463
vt 0.0964 0.8324
vt 0.0831 0.8093
vt 0.3126 0.5227
vt 0.3110 0.7776
vt 0.2359 0.4461
vt 0.2609 0.4498
vt 0.0822 0.8056
vt 0.0782 0.7796
vt 0.3011 0.8076
vt 0.2870 0.8272
vt 0.2643 0.4511
vt 0.2863 0.4634
vt 0.0783 0.7786
vt 0.0786 0.5250
vt 0.2865 0.8295
vt 0.2662 0.8443
vt 0.2334 0.4771
vt 0.1133 0.7966
vt 0.2790 0.7755
vt 0.2526 0.4798
vt 0.1102 0.7767
vt 0.2750 0.7935
vt 0.2678 0.4884
vt 0.1104 0.5269
vt 0.2513 0.8172
vt 0.2772 0.5044
vt 0.1148 0.5082
vt 0.2326 0.8216
vt 0.2805 0.5244
vt 0.1250 0.4939
vt 0.1575 0.8235
vt 0.1392 0.4832
vt 0.1380 0.8208
vt 0.1581 0.4782
vt 0.1225 0.8125
vt 0.9395 0.0664
vt 0.7003 0.7721
vt 0.2653 0.8070
vn 0.0000 1.0000 0.0000
vn 0.0000 -1.0000 0.0000
vn 1.0000 0.0000 0.0000
vn 0.0000 0.0000 1.0000
vn -1.0000 0.0000 0.0000
vn 0.0000 0.0000 -1.0000
vn -0.1162 0.0000 0.9932
vn -0.9514 0.0000 0.3079
vn -0.5555 0.0000 0.8315
vn -0.5554 0.0000 0.8316
vn 0.7071 0.7071 0.0000
vn 0.9239 0.3827 0.0000
vn -0.9952 0.0980 0.0000
vn -0.9239 0.3827 0.0000
vn 0.3827 -0.9239 0.0000
vn 0.0980 -0.9952 0.0000
vn 0.9952 0.0980 0.0000
vn -0.7071 0.7071 0.0000
vn -0.0980 -0.9952 0.0000
vn 0.9952 -0.0980 0.0000
vn 0.9239 -0.3827 0.0000
vn -0.3827 0.9239 0.0000
vn -0.3827 -0.9239 0.0000
vn -0.0980 0.9952 0.0000
vn -0.7071 -0.7071 0.0000
vn 0.0980 0.9952 0.0000
vn -0.9239 -0.3827 0.0000
vn 0.3827 0.9239 0.0000
vn -0.9952 -0.0980 0.0000
vn 0.7071 -0.7071 0.0000
vn -0.1162 0.0000 -0.9932
vn -0.9514 0.0000 -0.3079
vn -0.5555 0.0000 -0.8315
vn -0.5554 0.0000 -0.8316
usemtl Material.001
s off
f 88/1/1 10/2/1 9/3/1
f 90/4/2 11/5/2 91/6/2
f 92/7/1 4/8/1 87/9/1
f 87/10/3 3/11/3 90/12/3
f 86/13/2 7/14/2 89/15/2
f 4/8/4 28/16/4 27/17/4
f 16/18/4 11/5/4 17/19/4
f 52/20/4 53/21/4 54/22/4
f 35/23/4 56/24/4 34/25/4
f 35/26/4 57/27/4 55/28/4
f 36/29/4 58/30/4 57/31/4
f 38/32/4 58/33/4 37/34/4
f 39/35/4 59/36/4 38/37/4
f 40/38/4 60/39/4 39/40/4
f 40/41/4 62/42/4 61/43/4
f 41/44/4 63/45/4 62/46/4
f 43/47/4 63/48/4 42/49/4
f 44/50/4 64/51/4 43/52/4
f 45/53/4 65/54/4 44/55/4
f 46/56/4 66/57/4 45/58/4
f 46/59/4 68/60/4 67/61/4
f 48/62/4 68/63/4 47/64/4
f 49/65/4 69/66/4 48/67/4
f 50/68/4 70/69/4 49/70/4
f 50/71/4 72/72/4 71/73/4
f 51/74/4 54/75/4 72/76/4
f 34/77/4 53/78/4 33/79/4
f 11/5/5 92/80/5 91/81/5
f 12/82/4 29/83/4 28/16/4
f 20/84/4 19/85/4 3/11/4
f 17/19/4 11/5/4 3/11/4
f 12/82/4 32/86/4 31/87/4
f 22/88/4 21/89/4 3/11/4
f 4/8/4 12/82/4 28/16/4
f 4/8/4 26/90/4 25/91/4
f 3/11/4 4/8/4 22/88/4
f 4/8/4 25/91/4 24/92/4
f 12/82/4 30/93/4 29/83/4
f 18/94/4 17/19/4 3/11/4
f 15/95/4 11/5/4 16/18/4
f 21/89/4 20/84/4 3/11/4
f 4/8/4 24/92/4 23/96/4
f 4/8/4 23/96/4 22/88/4
f 4/8/4 27/17/4 26/90/4
f 12/82/4 31/87/4 30/93/4
f 19/85/4 18/94/4 3/11/4
f 13/97/4 32/86/4 12/82/4
f 14/98/4 13/97/4 11/5/4
f 13/97/4 12/82/4 11/5/4
f 82/99/1 85/100/1 88/1/1
f 83/101/2 90/102/2 91/103/2
f 76/104/1 92/105/1 87/106/1
f 75/107/3 87/108/3 90/109/3
f 79/110/2 77/111/2 86/13/2
f 134/112/6 113/113/6 132/114/6
f 136/115/6 115/116/6 114/117/6
f 115/118/6 137/119/6 116/120/6
f 116/121/6 138/122/6 117/123/6
f 138/124/6 118/125/6 117/126/6
f 139/127/6 119/128/6 118/129/6
f 140/130/6 120/131/6 119/132/6
f 120/133/6 142/134/6 121/135/6
f 121/136/6 143/137/6 122/138/6
f 143/139/6 123/140/6 122/141/6
f 144/142/6 124/143/6 123/144/6
f 145/145/6 125/146/6 124/147/6
f 146/148/6 126/149/6 125/150/6
f 126/151/6 148/152/6 127/153/6
f 148/154/6 128/155/6 127/156/6
f 149/157/6 129/158/6 128/159/6
f 150/160/6 130/161/6 129/162/6
f 130/163/6 152/164/6 131/165/6
f 131/166/6 134/167/6 132/168/6
f 133/169/6 114/170/6 113/171/6
f 92/80/5 83/101/5 91/81/5
f 84/172/6 112/173/6 93/174/6
f 83/101/6 94/175/6 95/176/6
f 109/177/6 110/178/6 84/172/6
f 84/172/6 110/178/6 111/179/6
f 100/180/6 101/181/6 75/107/6
f 95/176/6 96/182/6 83/101/6
f 97/183/6 75/107/6 83/101/6
f 76/104/6 105/184/6 106/185/6
f 100/180/6 75/107/6 99/186/6
f 98/187/6 75/107/6 97/183/6
f 83/101/6 93/174/6 94/175/6
f 96/182/6 97/183/6 83/101/6
f 75/107/6 101/181/6 102/188/6
f 99/186/6 75/107/6 98/187/6
f 75/107/6 102/188/6 76/104/6
f 108/189/6 84/172/6 76/104/6
f 76/104/6 104/190/6 105/184/6
f 83/101/6 84/172/6 93/174/6
f 106/185/6 107/191/6 76/104/6
f 107/191/6 108/189/6 76/104/6
f 76/104/6 103/192/6 104/190/6
f 76/104/6 102/188/6 103/192/6
f 109/177/6 84/172/6 108/189/6
f 84/172/6 111/179/6 112/173/6
f 15/95/4 14/98/4 11/5/4
f 9/3/1 2/193/1 88/1/1
f 88/1/1 85/100/1 10/2/1
f 8/194/1 10/2/1 85/100/1
f 90/4/2 3/11/2 11/5/2
f 92/7/1 12/82/1 4/8/1
f 87/10/3 4/8/3 3/11/3
f 6/195/2 89/15/2 7/14/2
f 86/13/2 1/196/2 5/197/2
f 5/197/2 7/14/2 86/13/2
f 52/20/4 33/198/4 53/21/4
f 35/23/4 55/199/4 56/24/4
f 35/26/4 36/200/4 57/27/4
f 36/29/4 37/201/4 58/30/4
f 38/32/4 59/202/4 58/33/4
f 39/35/4 60/203/4 59/36/4
f 40/38/4 61/204/4 60/39/4
f 40/41/4 41/205/4 62/42/4
f 41/44/4 42/206/4 63/45/4
f 43/47/4 64/207/4 63/48/4
f 44/50/4 65/208/4 64/51/4
f 45/53/4 66/209/4 65/54/4
f 46/56/4 67/210/4 66/57/4
f 46/59/4 47/211/4 68/60/4
f 48/62/4 69/212/4 68/63/4
f 49/65/4 70/213/4 69/66/4
f 50/68/4 71/214/4 70/69/4
f 50/71/4 51/215/4 72/72/4
f 51/74/4 52/216/4 54/75/4
f 34/77/4 56/217/4 53/78/4
f 11/5/5 12/82/5 92/80/5
f 88/1/1 74/218/1 81/219/1
f 81/219/1 82/99/1 88/1/1
f 80/220/1 85/100/1 82/99/1
f 83/101/2 75/107/2 90/102/2
f 76/104/1 84/172/1 92/105/1
f 75/107/3 76/104/3 87/108/3
f 86/13/2 89/15/2 79/110/2
f 78/221/2 79/110/2 89/15/2
f 77/111/2 73/222/2 86/13/2
f 134/112/6 133/223/6 113/113/6
f 136/115/6 135/224/6 115/116/6
f 115/118/6 135/225/6 137/119/6
f 116/121/6 137/226/6 138/122/6
f 138/124/6 139/227/6 118/125/6
f 139/127/6 140/228/6 119/128/6
f 140/130/6 141/229/6 120/131/6
f 120/133/6 141/230/6 142/134/6
f 121/136/6 142/231/6 143/137/6
f 143/139/6 144/232/6 123/140/6
f 144/142/6 145/233/6 124/143/6
f 145/145/6 146/234/6 125/146/6
f 146/148/6 147/235/6 126/149/6
f 126/151/6 147/236/6 148/152/6
f 148/154/6 149/237/6 128/155/6
f 149/157/6 150/238/6 129/158/6
f 150/160/6 151/239/6 130/161/6
f 130/163/6 151/240/6 152/164/6
f 131/166/6 152/241/6 134/167/6
f 133/169/6 136/242/6 114/170/6
f 92/80/5 84/172/5 83/101/5
s 1
f 2/193/4 5/197/7 1/196/4
f 8/243/8 89/244/5 6/245/8
f 9/3/7 7/246/9 5/197/7
f 10/247/10 6/245/8 7/246/9
f 15/248/11 72/72/12 14/249/12
f 22/250/13 65/208/14 21/251/14
f 29/252/15 58/30/16 28/253/16
f 14/254/12 54/75/17 13/255/17
f 21/256/14 66/209/18 20/257/18
f 28/258/16 59/202/19 27/259/19
f 32/260/20 56/217/21 31/261/21
f 20/262/18 67/210/22 19/263/22
f 27/264/19 60/203/23 26/265/23
f 19/266/22 68/60/24 18/267/24
f 26/268/23 61/204/25 25/269/25
f 18/270/24 69/212/26 17/271/26
f 25/272/25 62/42/27 24/273/27
f 13/274/17 53/21/20 32/275/20
f 17/276/26 70/213/28 16/277/28
f 24/278/27 63/45/29 23/279/29
f 31/280/21 55/199/30 30/281/30
f 16/282/28 71/214/11 15/283/11
f 22/284/13 63/48/29 64/207/13
f 30/285/30 57/27/15 29/286/15
f 47/64/24 168/287/26 48/62/26
f 40/41/25 161/288/27 41/205/27
f 52/20/17 153/289/20 33/198/20
f 48/67/26 169/290/28 49/65/28
f 41/44/27 162/291/29 42/206/29
f 35/23/30 154/292/21 155/293/30
f 49/70/28 170/294/11 50/68/11
f 42/49/29 163/295/13 43/47/13
f 35/26/30 156/296/15 36/200/15
f 50/71/11 171/297/12 51/215/12
f 43/52/13 164/298/14 44/50/14
f 36/29/15 157/299/16 37/201/16
f 51/74/12 172/300/17 52/216/17
f 44/55/14 165/301/18 45/53/18
f 37/34/16 158/302/19 38/32/19
f 33/79/20 154/292/21 34/77/21
f 45/58/18 166/303/22 46/56/22
f 38/37/19 159/304/23 39/35/23
f 46/59/22 167/305/24 47/211/24
f 39/40/23 160/306/25 40/38/25
f 77/307/31 74/308/6 73/309/6
f 89/244/5 80/310/32 78/311/32
f 79/312/33 81/313/31 77/307/31
f 78/311/32 82/314/34 79/312/33
f 152/164/12 95/315/11 94/316/12
f 145/233/14 102/317/13 101/318/14
f 138/122/16 109/319/15 108/320/16
f 134/167/17 94/321/12 93/322/17
f 146/234/18 101/323/14 100/324/18
f 139/227/19 108/325/16 107/326/19
f 136/242/21 112/327/20 111/328/21
f 147/235/22 100/329/18 99/330/22
f 140/228/23 107/331/19 106/332/23
f 148/152/24 99/333/22 98/334/24
f 141/229/25 106/335/23 105/336/25
f 149/237/26 98/337/24 97/338/26
f 142/134/27 105/339/25 104/340/27
f 133/223/20 93/341/17 112/342/20
f 150/238/28 97/343/26 96/344/28
f 143/137/29 104/345/27 103/346/29
f 135/224/30 111/347/21 110/348/30
f 151/239/11 96/349/28 95/350/11
f 144/232/13 103/351/29 102/352/13
f 137/119/15 110/353/30 109/354/15
f 190/355/26 127/156/24 128/155/26
f 183/356/27 120/133/25 121/135/27
f 174/357/20 132/114/17 113/113/20
f 191/358/28 128/159/26 129/158/28
f 184/359/29 121/136/27 122/138/29
f 115/116/30 177/360/21 114/117/21
f 192/361/11 129/162/28 130/161/11
f 185/362/13 122/141/29 123/140/13
f 178/363/15 115/118/30 116/120/15
f 193/364/12 130/163/11 131/165/12
f 186/365/14 123/144/13 124/143/14
f 179/366/16 116/121/15 117/123/16
f 175/367/17 131/166/12 132/168/17
f 187/368/18 124/147/14 125/146/18
f 180/369/19 117/126/16 118/125/19
f 177/360/21 113/171/20 114/170/21
f 188/370/22 125/150/18 126/149/22
f 181/371/23 118/129/19 119/128/23
f 189/372/24 126/151/22 127/153/24
f 182/373/25 119/132/23 120/131/25
f 2/193/4 9/3/7 5/197/7
f 8/243/8 85/374/5 89/244/5
f 9/3/7 10/247/10 7/246/9
f 10/247/10 8/243/8 6/245/8
f 15/248/11 71/73/11 72/72/12
f 22/250/13 64/51/13 65/208/14
f 29/252/15 57/31/15 58/30/16
f 14/254/12 72/76/12 54/75/17
f 21/256/14 65/54/14 66/209/18
f 28/258/16 58/33/16 59/202/19
f 32/260/20 53/78/20 56/217/21
f 20/262/18 66/57/18 67/210/22
f 27/264/19 59/36/19 60/203/23
f 19/266/22 67/61/22 68/60/24
f 26/268/23 60/39/23 61/204/25
f 18/270/24 68/63/24 69/212/26
f 25/272/25 61/43/25 62/42/27
f 13/274/17 54/22/17 53/21/20
f 17/276/26 69/66/26 70/213/28
f 24/278/27 62/46/27 63/45/29
f 31/280/21 56/24/21 55/199/30
f 16/282/28 70/69/28 71/214/11
f 22/284/13 23/375/29 63/48/29
f 30/285/30 55/28/30 57/27/15
f 47/64/24 167/305/24 168/287/26
f 40/41/25 160/306/25 161/288/27
f 52/20/17 172/300/17 153/289/20
f 48/67/26 168/287/26 169/290/28
f 41/44/27 161/288/27 162/291/29
f 35/23/30 34/25/21 154/292/21
f 49/70/28 169/290/28 170/294/11
f 42/49/29 162/291/29 163/295/13
f 35/26/30 155/293/30 156/296/15
f 50/71/11 170/294/11 171/297/12
f 43/52/13 163/295/13 164/298/14
f 36/29/15 156/296/15 157/299/16
f 51/74/12 171/297/12 172/300/17
f 44/55/14 164/298/14 165/301/18
f 37/34/16 157/299/16 158/302/19
f 33/79/20 153/289/20 154/292/21
f 45/58/18 165/301/18 166/303/22
f 38/37/19 158/302/19 159/304/23
f 46/59/22 166/303/22 167/305/24
f 39/40/23 159/304/23 160/306/25
f 77/307/31 81/313/31 74/308/6
f 89/244/5 85/374/5 80/310/32
f 79/312/33 82/314/34 81/313/31
f 78/311/32 80/310/32 82/314/34
f 152/164/12 151/240/11 95/315/11
f 145/233/14 144/142/13 102/317/13
f 138/122/16 137/226/15 109/319/15
f 134/167/17 152/241/12 94/321/12
f 146/234/18 145/145/14 101/323/14
f 139/227/19 138/124/16 108/325/16
f 136/242/21 133/169/20 112/327/20
f 147/235/22 146/148/18 100/329/18
f 140/228/23 139/127/19 107/331/19
f 148/152/24 147/236/22 99/333/22
f 141/229/25 140/130/23 106/335/23
f 149/237/26 148/154/24 98/337/24
f 142/134/27 141/230/25 105/339/25
f 133/223/20 134/112/17 93/341/17
f 150/238/28 149/157/26 97/343/26
f 143/137/29 142/231/27 104/345/27
f 135/224/30 136/115/21 111/347/21
f 151/239/11 150/160/28 96/349/28
f 144/232/13 143/139/29 103/351/29
f 137/119/15 135/225/30 110/353/30
f 190/355/26 189/372/24 127/156/24
f 183/356/27 182/373/25 120/133/25
f 174/357/20 175/367/17 132/114/17
f 191/358/28 190/355/26 128/159/26
f 184/359/29 183/356/27 121/136/27
f 115/116/30 176/376/30 177/360/21
f 192/361/11 191/358/28 129/162/28
f 185/362/13 184/359/29 122/141/29
f 178/363/15 176/376/30 115/118/30
f 193/364/12 192/361/11 130/163/11
f 186/365/14 185/362/13 123/144/13
f 179/366/16 178/363/15 116/121/15
f 175/367/17 193/364/12 131/166/12
f 187/368/18 186/365/14 124/147/14
f 180/369/19 179/366/16 117/126/16
f 177/360/21 174/357/20 113/171/20
f 188/370/22 187/368/18 125/150/18
f 181/371/23 180/369/19 118/129/19
f 189/372/24 188/370/22 126/151/22
f 182/373/25 181/371/23 119/132/23
